<svg width="239" height="31" viewBox="0 0 239 31" fill="none" xmlns="http://www.w3.org/2000/svg">
<path d="M6.27008 4.87203C9.48419 1.82305 13.2644 0.301514 17.5991 0.301514C21.8275 0.301514 24.9355 1.79946 26.9347 4.78946C28.8042 7.59074 29.2937 11.1233 28.4032 15.3872C27.5126 19.6392 25.5429 23.16 22.4939 25.9436C19.2503 28.91 15.5173 30.3902 11.2947 30.3902C7.20777 30.3902 4.1411 28.9454 2.09469 26.0497C0.101357 23.2484 -0.470691 19.8043 0.384437 15.7174C1.30444 11.3297 3.26239 7.71459 6.27008 4.87203ZM2.71982 15.6584C1.99443 19.132 2.44854 22.069 4.08803 24.4692C5.78059 26.9402 8.33418 28.1728 11.7547 28.1728C15.2696 28.1728 18.3834 26.9107 21.108 24.3866C23.6675 21.9982 25.3188 19.0023 26.0737 15.3931C26.8285 11.772 26.4393 8.75844 24.8942 6.35818C23.2311 3.80459 20.6421 2.53075 17.1332 2.53075C13.5121 2.53075 10.3511 3.83408 7.65008 6.44074C5.14367 8.86459 3.49828 11.9431 2.71982 15.6584ZM3.23879 15.6584C3.98777 12.061 5.56829 9.09459 7.98034 6.74741C10.5575 4.26459 13.577 3.02023 17.0329 3.02023C20.3944 3.02023 22.8655 4.241 24.4401 6.68254C25.9321 8.98844 26.3155 11.89 25.5842 15.3872C24.8529 18.8725 23.2606 21.7505 20.7955 24.0328C18.2006 26.4625 15.2224 27.6774 11.8667 27.6774C8.61136 27.6774 6.17573 26.4979 4.55983 24.139C2.97342 21.8331 2.537 19.0082 3.23879 15.6584ZM6.60034 22.7C7.73265 24.6343 9.62572 25.6015 12.2737 25.6015C15.016 25.6015 17.369 24.5931 19.327 22.5761C21.1493 20.6831 22.3642 18.2828 22.9716 15.3754C23.5732 12.4915 23.3667 10.1031 22.3524 8.19228C21.2437 6.14587 19.327 5.12562 16.6142 5.12562C13.7303 5.12562 11.3242 6.16946 9.39572 8.25126C7.66777 10.1561 6.47649 12.6684 5.82778 15.7823C5.24393 18.5541 5.50342 20.86 6.60034 22.7Z" fill="#FCF4F4"/>
<path d="M26.4629 25.1474H28.8514L40.2039 5.28488H39.0539L39.4903 3.20898H43.7129L29.8657 27.2056H26.0383L26.4629 25.1474ZM25.9262 27.7187L25.4957 29.7769H34.7783L35.2088 27.7187H25.9262ZM45.376 25.1474H46.5908L45.9421 21.4615H36.5357L34.4716 25.1474H35.7514L35.3208 27.2056H30.4024L34.9493 19.3208H48.1419L49.3567 27.2056H44.9514L45.376 25.1474ZM35.2383 18.8077L44.2378 3.20898H45.6355L48.0593 18.8077H35.2383ZM52.5001 25.1474L48.0121 0.637695H40.0211L39.5906 2.6959H46.1132C47.3575 10.8049 48.6137 18.9728 49.8816 27.2056H54.2221L54.6526 25.1474H52.5001ZM45.2285 16.7908L44.2024 7.40795L39.1542 16.7908H45.2285ZM44.8393 27.7187L44.4088 29.7769H53.6914L54.1219 27.7187H44.8393Z" fill="#FCF4F4"/>
<path d="M61.4111 2.69004L61.8416 0.631836H74.415L73.9845 2.69004H61.4111ZM56.2862 27.2057L56.7167 25.1475H60.3378L64.4896 5.28491H60.8685L61.305 3.20901H67.3321L62.3193 27.2057H56.2862ZM68.7534 27.7188L68.3229 29.777H55.7496L56.1801 27.7188H68.7534ZM68.1991 13.0459L77.6173 5.28491H75.5001L75.9365 3.20901H83.0783C80.3419 5.47363 74.2026 10.5513 64.6665 18.4421L67.8511 3.20901H73.8842L73.4478 5.28491H69.8267L68.1991 13.0459ZM72.7519 27.2057H79.7934L70.8116 13.9482L64.5191 19.1557L62.8383 27.1998H68.8714L69.3019 25.1416H65.6809L66.8014 19.769L69.9506 17.2154L75.2111 25.1357H73.1942L72.7519 27.2057ZM88.5511 3.20901H83.7978L71.2598 13.5826L80.4775 27.2057H85.3547L85.7852 25.1475H82.1229L74.4621 13.6003L84.8239 5.28491H88.1147L88.5511 3.20901ZM76.0427 2.69004L76.4732 0.631836H89.0878L88.6573 2.69004H76.0427ZM85.2427 27.7188L84.8121 29.777H72.2152L72.6457 27.7188H85.2427Z" fill="#FCF4F4"/>
<path d="M114.388 18.1472C114.571 19.1085 114.559 20.0875 114.346 21.09C114.081 22.3639 113.497 23.6495 112.595 24.9411C110.319 28.167 106.568 29.777 101.354 29.777H86.8644L87.2949 27.7188H103.637C105.341 27.7188 107.016 27.0582 108.661 25.7431C110.378 24.369 111.421 22.7708 111.805 20.9485C112.182 19.138 111.722 17.5398 110.419 16.1539C109.67 15.3282 108.762 14.7621 107.688 14.4436C109.015 14.0603 110.189 13.3467 111.203 12.3029C112.235 11.2295 112.896 10.0323 113.173 8.69953C113.521 7.03645 113.226 5.62696 112.288 4.45927C111.368 3.27978 110.077 2.69004 108.42 2.69004H92.5319L92.9624 0.631836H107.287C111.557 0.631836 114.205 1.89389 115.243 4.41799C115.774 5.68004 115.897 7.00696 115.609 8.39286C115.479 9.02389 115.266 9.64901 114.972 10.2623C114.211 11.8547 113.084 13.1462 111.592 14.1311C113.102 14.998 114.04 16.3367 114.388 18.1472ZM87.407 27.2057H93.2514L98.2642 3.20901H92.4198L91.9834 5.28491H95.6044L91.4526 25.1475H87.8316L87.407 27.2057ZM98.7832 3.20901L96.489 14.1782H106.019C107.541 14.1782 108.95 13.6416 110.242 12.5741C111.533 11.5008 112.341 10.2152 112.654 8.70542C112.972 7.18389 112.707 5.88645 111.858 4.81312C111.009 3.74568 109.829 3.20901 108.302 3.20901H98.7832ZM96.3829 14.6913L93.7703 27.2057H103.755C105.318 27.2057 106.869 26.5982 108.396 25.3775C109.982 24.1036 110.944 22.6293 111.297 20.9485C111.415 20.3882 111.439 19.828 111.362 19.2618C111.185 18.0116 110.56 16.9441 109.499 16.0477C108.437 15.1395 107.246 14.6913 105.913 14.6913H96.3829ZM100.883 5.5503H105.058C106.639 5.5503 107.676 5.59158 108.184 5.67414C109.198 5.88055 109.841 6.30517 110.118 6.94799C110.366 7.53773 110.425 8.15107 110.289 8.78209C110.212 9.14184 110.083 9.50158 109.894 9.87312C109.351 10.8993 108.526 11.5657 107.417 11.8665C106.774 12.0611 105.683 12.1554 104.15 12.1554H99.4967L100.883 5.5503ZM98.4765 17.0798H103.519C105.164 17.0798 106.391 17.2272 107.199 17.5103C108.184 17.8524 108.756 18.5777 108.921 19.6923C108.992 20.1465 108.98 20.5947 108.885 21.0488C108.756 21.668 108.467 22.2754 108.007 22.8829C107.399 23.7085 106.58 24.257 105.565 24.5282C104.834 24.7464 103.772 24.8585 102.386 24.8585H96.8488L98.4765 17.0798Z" fill="#FCF4F4"/>
<path d="M120.68 0.631836H145.155L143.433 8.88825H141.357L142.648 2.69004H120.256L120.68 0.631836ZM121.123 27.2057L126.135 3.20901H120.144L119.707 5.28491H123.328L119.176 25.1475H115.555L115.125 27.2057H121.123ZM140.785 21.5441L139.069 29.777H114.594L115.025 27.7188H137.417L138.709 21.5441H140.785ZM139.452 5.5503L138.756 8.88825H140.838L142.023 3.20901H126.649L124.272 14.5911H138.744L139.228 12.2675H127.209L128.612 5.55619H139.452V5.5503ZM124.166 15.0806L121.63 27.1998H137.004L138.19 21.5382H136.108L135.418 24.8526H124.573L126.177 17.1741H138.196L138.632 15.0747H124.166V15.0806Z" fill="#FCF4F4"/>
<path d="M169.364 25.1475H173.091L172.66 27.2057H167.27C165.89 23.9562 165.005 21.9511 164.616 21.1962C163.419 18.9198 162.004 16.9854 160.376 15.3931H160.972C163.03 15.3931 164.929 14.8859 166.663 13.8716C168.65 12.7039 169.847 11.1352 170.26 9.15953C170.897 6.11055 169.989 4.12901 167.53 3.20901C166.763 2.93184 165.884 2.7726 164.893 2.71363C164.08 2.67235 163.667 2.66645 163.661 2.69004H146.782L147.213 0.631836H163.844C166.397 0.631836 168.314 0.891322 169.605 1.41619C170.927 1.97645 171.876 2.96722 172.442 4.38261C173.002 5.7685 173.109 7.29004 172.761 8.95312C172.306 11.1234 171.21 12.9575 169.464 14.4672C168.19 15.5641 166.574 16.3662 164.616 16.8734C166.055 18.3949 167.63 21.1549 169.364 25.1475ZM141.663 27.2057H147.714L152.727 3.20901H146.676L146.24 5.28491H149.861L145.709 25.1475H142.088L141.663 27.2057ZM154.131 27.7188L153.7 29.777H141.127L141.557 27.7188H154.131ZM161.066 14.8977C162.989 14.8977 164.752 14.4318 166.356 13.5C168.243 12.4326 169.375 10.9818 169.753 9.15953C170.213 6.96568 169.794 5.37927 168.503 4.4062C167.423 3.61004 165.678 3.21491 163.278 3.21491H153.211L150.769 14.9036H161.066V14.8977ZM160.058 27.2057H166.669C165.418 24.2393 164.575 22.3403 164.133 21.5029C162.859 19.0731 161.331 17.0385 159.562 15.3931H150.669L148.204 27.2057H154.237L154.667 25.1475H151.046L152.627 17.5752H155.982C156.873 17.5752 157.486 17.6165 157.811 17.699C158.253 17.8111 158.672 18.0175 159.061 18.3182C159.798 18.8549 160.836 20.6359 162.163 23.6672L162.776 25.1475H160.494L160.058 27.2057ZM155.18 5.34978H163.024C164.876 5.34978 166.108 5.69183 166.722 6.37594C167.335 7.04824 167.535 7.90927 167.317 8.94722C167.164 9.6726 166.828 10.3449 166.297 10.9641C165.808 11.5421 165.147 11.9726 164.315 12.2616C163.425 12.58 162.186 12.7334 160.594 12.7334H153.635L155.18 5.34978ZM172.548 27.7188L172.118 29.777H159.521L159.951 27.7188H172.548Z" fill="#FCF4F4"/>
<path d="M202.413 25.1475H206.14L205.71 27.2057H200.319C198.939 23.9562 198.055 21.9511 197.665 21.1962C196.468 18.9198 195.053 16.9854 193.425 15.3931H194.021C196.079 15.3931 197.978 14.8859 199.712 13.8716C201.699 12.7039 202.896 11.1352 203.309 9.15953C203.946 6.11055 203.038 4.12901 200.579 3.20901C199.812 2.93184 198.933 2.7726 197.949 2.71363C197.135 2.67235 196.722 2.66645 196.716 2.69004H179.838L180.268 0.631836H196.899C199.452 0.631836 201.375 0.891322 202.661 1.41619C203.988 1.97645 204.931 2.96722 205.503 4.38261C206.063 5.7685 206.17 7.29004 205.822 8.95312C205.368 11.1234 204.271 12.9575 202.525 14.4672C201.257 15.5641 199.635 16.3662 197.677 16.8734C199.104 18.3949 200.685 21.1549 202.413 25.1475ZM174.713 27.2057H180.763L185.776 3.20901H179.731L179.295 5.28491H182.916L178.764 25.1475H175.143L174.713 27.2057ZM187.18 27.7188L186.749 29.777H174.176L174.606 27.7188H187.18ZM194.121 14.8977C196.044 14.8977 197.807 14.4318 199.417 13.5C201.298 12.4326 202.431 10.9818 202.814 9.15953C203.274 6.96568 202.855 5.37927 201.564 4.4062C200.479 3.61004 198.739 3.21491 196.339 3.21491H186.272L183.83 14.9036H194.121V14.8977ZM193.113 27.2057H199.718C198.473 24.2393 197.63 22.3403 197.182 21.5029C195.908 19.0731 194.386 17.0385 192.611 15.3931H183.718L181.253 27.2057H187.286L187.716 25.1475H184.095L185.676 17.5752H189.032C189.922 17.5752 190.535 17.6165 190.86 17.699C191.302 17.8111 191.721 18.0175 192.11 18.3182C192.847 18.8549 193.885 20.6359 195.212 23.6672L195.825 25.1475H193.543L193.113 27.2057ZM188.235 5.34978H196.079C197.931 5.34978 199.163 5.69183 199.777 6.37594C200.39 7.04824 200.591 7.90927 200.372 8.94722C200.219 9.6726 199.883 10.3449 199.358 10.9641C198.869 11.5421 198.208 11.9726 197.376 12.2616C196.486 12.58 195.248 12.7334 193.655 12.7334H186.69L188.235 5.34978ZM205.603 27.7188L205.173 29.777H192.576L193.007 27.7188H205.603Z" fill="#FCF4F4"/>
<path d="M208.971 2.69004L209.401 0.631836H221.981L221.55 2.69004H208.971ZM217.74 17.5516L212.114 5.28491H208.428L208.865 3.20901H214.261L220.441 16.8557L220.382 16.9382L220.471 16.9972L218.336 27.2057H212.309L212.739 25.1475H216.154L217.74 17.5516ZM221.438 3.20901H214.874L220.842 16.4016L232.472 3.20901H225.165L224.729 5.28491H227.961L221.721 12.3854L218.489 5.28491H221.002L221.438 3.20901ZM224.776 27.7188L224.345 29.777H211.772L212.203 27.7188H224.776ZM237.739 3.20901L237.302 5.28491H234.153L223.066 17.5516L221.479 25.1475H225.307L224.876 27.2057H218.843L220.99 16.9382L233.08 3.20901H237.739ZM225.271 2.69004L225.702 0.631836H238.281L237.851 2.69004H225.271Z" fill="#FCF4F4"/>
</svg>
